<svg width="20" height="20" viewBox="0 0 20 20" fill="none" xmlns="http://www.w3.org/2000/svg">
<g clip-path="url(#clip0_29_1145)">
<mask id="mask0_29_1145" style="mask-type:luminance" maskUnits="userSpaceOnUse" x="0" y="0" width="20" height="20">
<path d="M20 10C20 4.47715 15.5228 0 10 0C4.47715 0 0 4.47715 0 10C0 15.5228 4.47715 20 10 20C15.5228 20 20 15.5228 20 10Z" fill="white"/>
</mask>
<g mask="url(#mask0_29_1145)">
<mask id="mask1_29_1145" style="mask-type:luminance" maskUnits="userSpaceOnUse" x="-20" y="-13" width="60" height="46">
<path d="M40 -12.5H-20V32.5H40V-12.5Z" fill="white"/>
</mask>
<g mask="url(#mask1_29_1145)">
<path fill-rule="evenodd" clip-rule="evenodd" d="M-20 -12.5H65.5V-9.03125H-20V-12.5ZM-20 -5.57187H65.5V-2.10312H-20V-5.57187ZM-20 1.34687H65.5V4.81562H-20V1.34687ZM-20 8.26562H65.5V11.7344H-20V8.26562ZM-20 15.2031H65.5V18.6531H-20V15.2031ZM-20 22.1125H65.5V25.5813H-20V22.1125ZM-20 29.0312H65.5V32.5H-20V29.0312Z" fill="#BD3D44"/>
<path fill-rule="evenodd" clip-rule="evenodd" d="M-20 -9.03125H65.5V-5.57187H-20V-9.03125ZM-20 -2.1125H65.5V1.34687H-20V-2.1125ZM-20 4.80625H65.5V8.275H-20V4.80625ZM-20 11.7344H65.5V15.2031H-20V11.7344ZM-20 18.6531H65.5V22.1219H-20V18.6531ZM-20 25.5719H65.5V29.0406H-20V25.5719Z" fill="white"/>
<path fill-rule="evenodd" clip-rule="evenodd" d="M-20 -12.5H14.2V11.7344H-20V-12.5Z" fill="#192F5D"/>
<path fill-rule="evenodd" clip-rule="evenodd" d="M-17.1498 -11.4688L-16.8311 -10.5031H-15.8373L-16.6436 -9.9125L-16.3342 -8.94687L-17.1498 -9.54687L-17.9561 -8.95625L-17.6561 -9.9125L-18.4717 -10.5031H-17.4498L-17.1498 -11.4688ZM-11.4498 -11.4688L-11.1404 -10.5031H-10.1279L-10.9436 -9.9125L-10.6436 -8.94687L-11.4498 -9.54687L-12.2654 -8.95625L-11.9561 -9.9125L-12.7623 -10.5031H-11.7686L-11.4498 -11.4688ZM-5.74979 -11.4688L-5.44041 -10.5031H-4.43729L-5.24354 -9.9125L-4.93416 -8.94687L-5.74979 -9.54687L-6.56541 -8.95625L-6.25603 -9.9125L-7.07166 -10.5031H-6.05916L-5.74979 -11.4688ZM-0.0497837 -11.4688L0.259592 -10.5031H1.27209L0.456465 -9.9125L0.765841 -8.94687L-0.0497837 -9.54687L-0.865408 -8.95625L-0.546659 -9.9125L-1.37166 -10.5031H-0.368534L-0.0497837 -11.4688ZM5.65022 -11.4688L5.95959 -10.5031H6.96272L6.15647 -9.9125L6.46584 -8.94687L5.65022 -9.54687L4.83459 -8.95625L5.14397 -9.9125L4.33772 -10.5031H5.34084L5.65022 -11.4688ZM11.3502 -11.4688L11.6596 -10.5031H12.6721L11.8471 -9.9125L12.1658 -8.94687L11.3502 -9.54687L10.5346 -8.95625L10.8533 -9.9125L10.0283 -10.5031H11.0408L11.3502 -11.4688ZM-14.2998 -9.03125L-13.9904 -8.075H-12.9686L-13.7842 -7.49375L-13.4842 -6.52812L-14.2811 -7.11875L-15.0967 -6.52812L-14.8061 -7.49375L-15.5936 -8.075H-14.5904L-14.2998 -9.03125ZM-8.59978 -9.03125L-8.28104 -8.075H-7.27791L-8.10291 -7.49375L-7.78416 -6.52812L-8.59978 -7.11875L-9.41541 -6.52812L-9.10604 -7.49375L-9.92166 -8.075H-8.90916L-8.59978 -9.03125ZM-2.89979 -9.03125L-2.59041 -8.075H-1.57791L-2.39353 -7.49375L-2.08416 -6.52812L-2.89979 -7.11875L-3.71541 -6.52812L-3.40604 -7.49375L-4.21229 -8.075H-3.21854L-2.89979 -9.03125ZM2.80021 -9.03125L3.11897 -8.075H4.12209L3.29709 -7.49375L3.61584 -6.52812L2.80021 -7.11875L1.99397 -6.52812L2.29397 -7.49375L1.47834 -8.075H2.50021L2.80021 -9.03125ZM8.50022 -9.03125L8.80959 -8.075H9.82209L9.00647 -7.49375L9.31584 -6.52812L8.50022 -7.11875L7.68459 -6.52812L7.99397 -7.49375L7.18772 -8.075H8.19084L8.50022 -9.03125ZM-17.1498 -6.63125L-16.8311 -5.65625H-15.8373L-16.6436 -5.06562L-16.3342 -4.10937L-17.1498 -4.7L-17.9561 -4.10937L-17.6561 -5.06562L-18.4717 -5.65625H-17.4498L-17.1498 -6.63125ZM-11.4498 -6.63125L-11.1404 -5.65625H-10.1279L-10.9436 -5.06562L-10.6436 -4.10937L-11.4498 -4.7L-12.2654 -4.10937L-11.9561 -5.075L-12.7623 -5.66562H-11.7686L-11.4498 -6.63125ZM-5.74979 -6.63125L-5.44041 -5.66562H-4.43729L-5.24354 -5.075L-4.93416 -4.11875L-5.74979 -4.70937L-6.56541 -4.11875L-6.25603 -5.08437L-7.07166 -5.675H-6.05916L-5.74979 -6.63125ZM-0.0497837 -6.63125L0.259592 -5.66562H1.27209L0.456465 -5.075L0.765841 -4.11875L-0.0497837 -4.70937L-0.865408 -4.11875L-0.546659 -5.08437L-1.37166 -5.675H-0.368534L-0.0497837 -6.63125ZM5.65022 -6.63125L5.95959 -5.66562H6.96272L6.15647 -5.075L6.46584 -4.11875L5.65022 -4.70937L4.83459 -4.11875L5.14397 -5.08437L4.33772 -5.675H5.34084L5.65022 -6.63125ZM11.3502 -6.63125L11.6596 -5.66562H12.6721L11.8471 -5.075L12.1658 -4.11875L11.3502 -4.70937L10.5346 -4.11875L10.8533 -5.08437L10.0283 -5.675H11.0408L11.3502 -6.63125ZM-14.2998 -4.19375L-13.9904 -3.2375H-12.9686L-13.7842 -2.64687L-13.4748 -1.68125L-14.2904 -2.28125L-15.1061 -1.69062L-14.7967 -2.64687L-15.6029 -3.2375H-14.5998L-14.2998 -4.19375ZM-8.59978 -4.19375L-8.28104 -3.2375H-7.27791L-8.10291 -2.64687L-7.78416 -1.68125L-8.59978 -2.28125L-9.41541 -1.69062L-9.10604 -2.64687L-9.92166 -3.2375H-8.90916L-8.59978 -4.19375ZM-2.89979 -4.19375L-2.59041 -3.2375H-1.57791L-2.39353 -2.64687L-2.08416 -1.68125L-2.89979 -2.28125L-3.71541 -1.69062L-3.40604 -2.64687L-4.21229 -3.2375H-3.21854L-2.89979 -4.19375ZM2.80021 -4.19375L3.11897 -3.2375H4.12209L3.30647 -2.64687L3.61584 -1.68125L2.80021 -2.28125L1.99397 -1.69062L2.29397 -2.64687L1.47834 -3.2375H2.50021L2.80021 -4.19375ZM8.50022 -4.19375L8.80959 -3.2375H9.82209L9.00647 -2.64687L9.31584 -1.68125L8.50022 -2.28125L7.68459 -1.69062L7.99397 -2.64687L7.18772 -3.2375H8.19084L8.50022 -4.19375ZM-17.1498 -1.76562L-16.8311 -0.809375H-15.8373L-16.6436 -0.218749L-16.3342 0.746877L-17.1498 0.146875L-17.9561 0.737501L-17.6561 -0.218749L-18.4717 -0.809375H-17.4498L-17.1498 -1.76562ZM-11.4498 -1.76562L-11.1404 -0.809375H-10.1279L-10.9436 -0.218749L-10.6436 0.737501L-11.4498 0.146875L-12.2654 0.737501L-11.9561 -0.218749L-12.7623 -0.809375H-11.7686L-11.4498 -1.76562ZM-5.74979 -1.76562L-5.44041 -0.809375H-4.43729L-5.24354 -0.218749L-4.93416 0.746877L-5.74979 0.146875L-6.56541 0.737501L-6.25603 -0.218749L-7.07166 -0.809375H-6.05916L-5.74979 -1.76562ZM-0.0497837 -1.76562L0.259592 -0.809375H1.27209L0.456465 -0.218749L0.765841 0.746877L-0.0497837 0.146875L-0.865408 0.737501L-0.546659 -0.218749L-1.37166 -0.809375H-0.368534L-0.0497837 -1.76562ZM5.65022 -1.76562L5.95959 -0.809375H6.96272L6.15647 -0.218749L6.46584 0.746877L5.65022 0.146875L4.83459 0.737501L5.14397 -0.218749L4.33772 -0.809375H5.34084L5.65022 -1.76562ZM11.3502 -1.76562L11.6596 -0.809375H12.6721L11.8471 -0.218749L12.1658 0.746877L11.3502 0.146875L10.5346 0.737501L10.8439 -0.218749L10.0189 -0.809375H11.0314L11.3502 -1.76562ZM-14.2998 0.653127L-13.9904 1.61875H-12.9686L-13.7842 2.2L-13.4748 3.16563L-14.2904 2.56563L-15.1061 3.16563L-14.7967 2.2L-15.6029 1.60938H-14.5998L-14.2998 0.653127ZM-8.59978 0.653127L-8.28104 1.61875H-7.27791L-8.10291 2.2L-7.78416 3.16563L-8.59978 2.56563L-9.41541 3.16563L-9.10604 2.2L-9.92166 1.60938H-8.90916L-8.59978 0.653127ZM-2.89979 0.653127L-2.59041 1.61875H-1.57791L-2.39353 2.2L-2.08416 3.16563L-2.89979 2.56563L-3.71541 3.16563L-3.40604 2.2L-4.21229 1.60938H-3.21854L-2.89979 0.653127ZM2.80021 0.653127L3.11897 1.61875H4.12209L3.30647 2.2L3.61584 3.16563L2.80021 2.56563L1.99397 3.16563L2.29397 2.2L1.47834 1.60938H2.50021L2.80021 0.653127ZM8.50022 0.653127L8.80959 1.61875H9.82209L9.00647 2.2L9.31584 3.16563L8.50022 2.56563L7.68459 3.16563L7.99397 2.2L7.18772 1.60938H8.19084L8.50022 0.653127ZM-17.1498 3.07188L-16.8311 4.0375H-15.8373L-16.6436 4.62813L-16.3342 5.575L-17.1498 4.99375L-17.9561 5.575L-17.6561 4.61875L-18.4717 4.02813H-17.4498L-17.1498 3.07188ZM-11.4498 3.07188L-11.1404 4.0375H-10.1279L-10.9436 4.62813L-10.6342 5.575L-11.4498 4.99375L-12.2654 5.575L-11.9467 4.61875L-12.7623 4.02813H-11.7686L-11.4498 3.07188ZM-5.74979 3.07188L-5.44041 4.0375H-4.43729L-5.24354 4.62813L-4.93416 5.575L-5.74979 4.99375L-6.56541 5.575L-6.25603 4.61875L-7.07166 4.02813H-6.05916L-5.74979 3.07188ZM-0.0497837 3.07188L0.259592 4.0375H1.27209L0.456465 4.62813L0.765841 5.575L-0.0497837 4.99375L-0.865408 5.575L-0.546659 4.61875L-1.37166 4.02813H-0.368534L-0.0497837 3.07188ZM5.65022 3.07188L5.95959 4.0375H6.96272L6.15647 4.62813L6.46584 5.575L5.65022 4.99375L4.83459 5.575L5.14397 4.61875L4.33772 4.02813H5.34084L5.65022 3.07188ZM11.3502 3.07188L11.6596 4.0375H12.6721L11.8471 4.62813L12.1658 5.575L11.3502 4.99375L10.5346 5.575L10.8533 4.61875L10.0283 4.02813H11.0408L11.3502 3.07188ZM-14.2998 5.5L-13.9904 6.45625H-12.9686L-13.7842 7.04688L-13.4748 8.0125L-14.2904 7.4125L-15.1061 8.00313L-14.7967 7.04688L-15.6029 6.45625H-14.5998L-14.2998 5.5ZM-8.59978 5.5L-8.28104 6.45625H-7.27791L-8.10291 7.04688L-7.78416 8.0125L-8.59978 7.4125L-9.41541 8.00313L-9.10604 7.04688L-9.92166 6.45625H-8.90916L-8.59978 5.5ZM-2.89979 5.5L-2.59041 6.45625H-1.57791L-2.39353 7.04688L-2.08416 8.0125L-2.89979 7.4125L-3.71541 8.00313L-3.40604 7.04688L-4.21229 6.45625H-3.21854L-2.89979 5.5ZM2.80021 5.5L3.11897 6.45625H4.12209L3.30647 7.04688L3.61584 8.0125L2.80021 7.4125L1.99397 8.00313L2.29397 7.04688L1.47834 6.45625H2.50021L2.80021 5.5ZM8.50022 5.5L8.80959 6.45625H9.82209L9.00647 7.04688L9.31584 8.0125L8.50022 7.4125L7.68459 8.00313L7.99397 7.04688L7.18772 6.45625H8.19084L8.50022 5.5ZM-17.1498 7.92813L-16.8311 8.88438H-15.8373L-16.6436 9.475L-16.3342 10.4313L-17.1498 9.84063L-17.9561 10.4313L-17.6561 9.46563L-18.4717 8.875H-17.4498L-17.1498 7.92813ZM-11.4498 7.92813L-11.1404 8.88438H-10.1279L-10.9436 9.475L-10.6342 10.4313L-11.4498 9.84063L-12.2654 10.4313L-11.9467 9.46563L-12.7623 8.875H-11.7686L-11.4498 7.92813ZM-5.74979 7.92813L-5.44041 8.88438H-4.43729L-5.22478 9.475L-4.91541 10.4313L-5.73104 9.84063L-6.54666 10.4313L-6.23728 9.46563L-7.05291 8.875H-6.04041L-5.74979 7.92813ZM-0.0497837 7.92813L0.259592 8.88438H1.27209L0.456465 9.475L0.765841 10.4313L-0.0497837 9.84063L-0.865408 10.4313L-0.546659 9.46563L-1.37166 8.875H-0.368534L-0.0497837 7.92813ZM5.65022 7.92813L5.95959 8.88438H6.96272L6.15647 9.475L6.46584 10.4313L5.65022 9.84063L4.83459 10.4313L5.14397 9.46563L4.33772 8.875H5.34084L5.65022 7.92813ZM11.3502 7.92813L11.6596 8.88438H12.6721L11.8471 9.475L12.1658 10.4313L11.3502 9.84063L10.5346 10.4313L10.8533 9.46563L10.0283 8.875H11.0408L11.3502 7.92813Z" fill="white"/>
</g>
</g>
<path d="M19.9 10C19.9 4.53238 15.4676 0.0999985 9.99998 0.0999985C4.53236 0.0999985 0.0999756 4.53238 0.0999756 10C0.0999756 15.4676 4.53236 19.9 9.99998 19.9C15.4676 19.9 19.9 15.4676 19.9 10Z" stroke="#DAD5D5" stroke-width="0.2"/>
</g>
<defs>
<clipPath id="clip0_29_1145">
<rect width="20" height="20" fill="white"/>
</clipPath>
</defs>
</svg>
