<svg width="20" height="20" viewBox="0 0 20 20" fill="none" xmlns="http://www.w3.org/2000/svg">
<g clip-path="url(#clip0_29_1121)">
<mask id="mask0_29_1121" style="mask-type:luminance" maskUnits="userSpaceOnUse" x="0" y="0" width="20" height="20">
<path d="M20 10C20 4.47715 15.5228 0 10 0C4.47715 0 0 4.47715 0 10C0 15.5228 4.47715 20 10 20C15.5228 20 20 15.5228 20 10Z" fill="white"/>
</mask>
<g mask="url(#mask0_29_1121)">
<mask id="mask1_29_1121" style="mask-type:luminance" maskUnits="userSpaceOnUse" x="-20" y="-13" width="60" height="46">
<path d="M40 -12.5H-20V32.5H40V-12.5Z" fill="white"/>
</mask>
<g mask="url(#mask1_29_1121)">
<path d="M-20 -12.5H40V10H-20V-12.5Z" fill="#E70011"/>
<path d="M-20 10H40V32.5H-20V10Z" fill="white"/>
</g>
</g>
<path d="M19.9 10C19.9 4.53238 15.4676 0.0999985 9.99998 0.0999985C4.53236 0.0999985 0.0999756 4.53238 0.0999756 10C0.0999756 15.4676 4.53236 19.9 9.99998 19.9C15.4676 19.9 19.9 15.4676 19.9 10Z" stroke="#DAD5D5" stroke-width="0.2"/>
</g>
<defs>
<clipPath id="clip0_29_1121">
<rect width="20" height="20" fill="white"/>
</clipPath>
</defs>
</svg>
