<svg width="24" height="24" viewBox="0 0 24 24" fill="none" xmlns="http://www.w3.org/2000/svg">
  <path d="M4.75 20.25V6.75C4.75 6.05964 5.30964 5.5 6 5.5H10.75V3.75C10.75 3.05964 11.3096 2.5 12 2.5H18C18.6904 2.5 19.25 3.05964 19.25 3.75V20.25" stroke="#F5F7FA" stroke-width="1.5" stroke-linecap="round" stroke-linejoin="round"/>
  <path d="M9 20.25V16.75C9 16.0596 9.55964 15.5 10.25 15.5H13.75C14.4404 15.5 15 16.0596 15 16.75V20.25" stroke="#F5F7FA" stroke-width="1.5" stroke-linecap="round" stroke-linejoin="round"/>
  <path d="M8.5 8.5H8.50898" stroke="#F5F7FA" stroke-width="1.8" stroke-linecap="round" stroke-linejoin="round"/>
  <path d="M8.5 11.5H8.50898" stroke="#F5F7FA" stroke-width="1.8" stroke-linecap="round" stroke-linejoin="round"/>
  <path d="M12 6.5H12.009" stroke="#F5F7FA" stroke-width="1.8" stroke-linecap="round" stroke-linejoin="round"/>
  <path d="M12 9.5H12.009" stroke="#F5F7FA" stroke-width="1.8" stroke-linecap="round" stroke-linejoin="round"/>
  <path d="M15.5 6.5H15.509" stroke="#F5F7FA" stroke-width="1.8" stroke-linecap="round" stroke-linejoin="round"/>
  <path d="M15.5 9.5H15.509" stroke="#F5F7FA" stroke-width="1.8" stroke-linecap="round" stroke-linejoin="round"/>
  <path d="M15.5 12.5H15.509" stroke="#F5F7FA" stroke-width="1.8" stroke-linecap="round" stroke-linejoin="round"/>
</svg>
